<svg xmlns="http://www.w3.org/2000/svg" xml:space="preserve" width="128" height="128" style="fill-rule:evenodd;clip-rule:evenodd;stroke-linejoin:round;stroke-miterlimit:2">
    <g clip-path="url(#_clip1)">
        <path d="M20.24 101.86c-5.7-1.08-27.77-1.08-33.47 0-18.04 3.43-31.26 11.39-31.26 28.36v57.83l48 .01 48-.01v-57.83c-.01-16.97-13.23-24.93-31.27-28.36Z" style="fill:#da4105;fill-rule:nonzero"/>
        <path d="M4.02 114.14c-6.08 0-10.9-4.93-10.9-11.01v-9.5h21.8v9.5c0 6.08-4.82 11.01-10.9 11.01Z" style="fill:#e59900;fill-rule:nonzero"/>
        <path d="M3.79 17.65c-24.91 0-31.42 19.31-31.42 46.43s19.32 35.4 31.42 35.4c12.1 0 31.42-8.27 31.42-35.4S28.69 17.65 3.79 17.65Z" style="fill:#fcc21b;fill-rule:nonzero"/>
        <path d="M-6.96 65.19c0 2.91-1.95 5.27-4.36 5.27s-4.37-2.36-4.37-5.27c0-2.92 1.96-5.27 4.37-5.27 2.41-.01 4.36 2.35 4.36 5.27m21.49 0c0 2.91 1.95 5.27 4.37 5.27 2.41 0 4.36-2.36 4.36-5.27 0-2.92-1.96-5.27-4.36-5.27-2.42-.01-4.37 2.35-4.37 5.27" style="fill:#444;fill-rule:nonzero"/>
        <path d="M13.23 82.98H-5.65c-1.08 0-1.55.73-.83 1.82 1 1.53 4.72 4.46 10.28 4.46s9.27-2.94 10.28-4.46c.7-1.09.23-1.82-.85-1.82Z" style="fill:#4c3734;fill-rule:nonzero"/>
        <path d="M8.35 75.54c-1.61.46-3.27.68-4.56.68-1.29 0-2.96-.22-4.56-.68-.69-.19-.96.46-.71.89.51.9 2.56 2.71 5.27 2.71 2.71 0 4.76-1.81 5.27-2.71.25-.43-.02-1.09-.71-.89Z" style="fill:#e48c15;fill-rule:nonzero"/>
        <path d="M-18.81 19.165c4.989-3.96 11.975-7.298 21.816-7.493 0 0 .469-.019.685-.019.195 0 .682.019.682.019 7.113.2 12.948 2.025 17.612 4.558 1.556.491 3.049 1.13 4.342 1.87.786.449 1.499.948 2.206 1.512.146.117.683.413.731.591.055.199-.411-.03-.618-.048-.296-.025-.596-.046-.893-.084l-.097-.011a34.512 34.512 0 0 1 3.12 2.917c.518.312 1.031.654 1.537 1.037.628.474 1.142 1.057 1.635 1.663.17.21.346.415.494.643.093.143.441.411.273.43-.314.036-.692-.13-1.033-.239a25.555 25.555 0 0 1 2.19 3.663 41.807 41.807 0 0 1 3.524 10.998c1.116 1.493 2.024 3.12 2.191 4.719.026.247-.385-.314-.585-.457-.373-.268-.767-.501-1.151-.751.206 2.391.187 4.556.061 6.407.707.86 1.757 1.984 1.881 3.118.01.103-.189-.086-.281-.132a4.834 4.834 0 0 1-.728-.419 11.231 11.231 0 0 1-1.027-.837c-.348 3.109-.939 4.967-.939 4.967s-.409-.428-1.189-1.034c-.84-.644-1.757-1.015-1.757-1.015 1.225 5.533 2.267 14.384 0 18.212-3.69-3.096-8.713-13.694-10.084-31.849-1.254 1.098-2.53 2.084-3.631 2.551.08.333.159.665.264.977.12.357.262.709.436 1.042.093.176.503.543.306.512-.478-.072-1.205-.806-1.629-1.068-.857-.532-1.758-.974-2.71-1.272a26.223 26.223 0 0 1-2.803-.308c.346 1.159.627 2.341.729 3.545.036.428.08 1.673-.249 1.973 0 0-.313-.42-.338-.457a74.94 74.94 0 0 0-.65-.912c-.626-.864-1.249-1.722-1.97-2.512-1.338-1.468-2.722-2.855-4.258-4.04-1.482-.673-2.965-1.342-4.533-1.824-2.084-.643-4.228-.731-6.356-1.119-.371-.069-.74-.155-1.105-.254a33.48 33.48 0 0 0-.64.029c1.214 2.937 1.621 6.191.684 9.231a13.854 13.854 0 0 1-1.833 3.797c-.06.086-.635.927-.788.864-.438-.183-1.098-1.602-1.373-2.002-1.031-1.5-2.126-3.045-3.426-4.332-2.392-2.373-5.275-3.931-8.235-5.369.181 11.015-3.188 25.896-10.172 32.797-1.801-4.039-1.524-13.243 0-18.212 0 0-.937.371-1.755 1.015a15.979 15.979 0 0 0-1.192 1.034s-1.323-4.952-1.342-11.21c-.352.31-.986 1.104-1.386 1.167-.117.019.021-.237.034-.356.033-.285.079-.57.125-.853.107-.659.248-1.313.434-1.956.248-.864.602-1.673 1.017-2.451.422-3.952 1.516-8.072 3.828-11.6a31.438 31.438 0 0 1-1.36-.136 7.365 7.365 0 0 1-1.633-.378c-.068-.025-.43-.107-.453-.18 0 0 1-.484 1.153-.566 1.264-.671 2.511-1.43 3.738-2.17a28.862 28.862 0 0 0 1.937-1.287 42.375 42.375 0 0 1 4.063-4.493 4.945 4.945 0 0 1-1.149-1.3c-.367-.601-.711-1.293-.795-2.002-.029-.241.137-.857.546-.778 1.085.208 1.574 1.776 2.75 2.042.298.067.719-.01 1.122-.115Z" style="fill:#6d4c41;fill-rule:nonzero"/>
    </g>
</svg>