<svg xmlns="http://www.w3.org/2000/svg"
    xmlns:xlink="http://www.w3.org/1999/xlink" width="128" height="128">
    <defs>
        <path id="a" d="M15.6 27.43c8.02-2.46 15.01 5.19 20.79 3.37 8.45-2.67 13.35-3.21 22.39-.41 9.11 2.83 19.74 10.65 27.47 16.06 6.81 4.77 15.65 12.53 21.53 18.51 3.81 3.88 3.71 6.55 2.96 8.55-.97 2.58-3.76 3.96-7.19 3.83-.36-.01-.64.32-.51.66 1.21 3.37.09 6.26-1.54 7.7-2.42 2.13-5.19 2.58-8.35 1.45a.457.457 0 0 0-.59.55c.68 2.61-.13 5.17-2.28 6.75-2.3 1.68-4.46 1.62-7.94.35-.36-.13-.71.13-.73.51-.08 1.6-1.34 2.83-2.08 3.55-3.25 3.18-8.87 1.01-13.57-1.24-9.23-4.41-21.6-13.7-30.47-18.78C25.08 72.88.42 59.73 1.42 48.74c.45-4.98 6.76-18.54 14.18-21.31z"/>
    </defs>
    <use xlink:href="#a" fill="#fac036" overflow="visible"/>
    <clipPath id="b">
        <use xlink:href="#a" overflow="visible"/>
    </clipPath>
    <path fill="#e48c15" d="M103.12 60.29c1.62 1.83 2.19 5.74.38 8.4-1.96 2.88-4.88 2.69-5.67 3.48-.8.8.04 3.65-2.83 6.21-3.14 2.79-6.42 1.4-7.5 2.25-.88.69.16 3.49-3.66 6.18-3.94 2.78-7.41 1.58-8.03 2.13-.94.84.28 2.17-3.44 5.44-3.73 3.27-11.94-1.64-14.12-2.44-.61-.22-2.31.75-2.15 1.38.08.31 16.09 10.4 21.73 10.52 5.92.12 12.01-.47 17.31-3.13 2.02-1.01 3.88-2.3 5.67-3.67 4.5-3.45 8.67-7.59 10.89-12.81 1.61-3.77 2.11-7.92 2.33-12.02.18-3.31-.03-7.11-2.61-9.19-2.07-1.67-5.84-2.85-8.3-2.73z" clip-path="url(#b)"/>
    <defs>
        <path id="c" d="M106.08 66.74c4.54-3.03 15.53-9.08 18.35-16.65 1.9-5.1-3.37-9.33-6.16-12.69-3.61-4.33-10.23-7.67-15.5-6.4-3.15.76-9.94 3.2-14.24 3.07-5.24-.17-8.02-.36-11.47-.89-2.7-.41-6.65.09-11.6 1.65-4.99 1.57-9.01 3.38-14.03 6.64-1.98 1.29-4.37 3.46-5.67 5.6-1.97 3.24.57 8.34 5.47 8.99 6.32.84 12.97-6.02 20.1-8.99 2.11-.88 4.36-2.12 7.17-1.88 3.14.28 16.56 10.98 27.58 21.55z"/>
    </defs>
</svg>