<svg xmlns="http://www.w3.org/2000/svg"
    xmlns:xlink="http://www.w3.org/1999/xlink" width="128" height="128">
    <use xlink:href="#a" fill="#fac036" overflow="visible"/>
    <clipPath id="b">
        <use xlink:href="#a" overflow="visible"/>
    </clipPath>
    <path fill="#e48c15" d="M103.12 60.29c1.62 1.83 2.19 5.74.38 8.4-1.96 2.88-4.88 2.69-5.67 3.48-.8.8.04 3.65-2.83 6.21-3.14 2.79-6.42 1.4-7.5 2.25-.88.69.16 3.49-3.66 6.18-3.94 2.78-7.41 1.58-8.03 2.13-.94.84.28 2.17-3.44 5.44-3.73 3.27-11.94-1.64-14.12-2.44-.61-.22-2.31.75-2.15 1.38.08.31 16.09 10.4 21.73 10.52 5.92.12 12.01-.47 17.31-3.13 2.02-1.01 3.88-2.3 5.67-3.67 4.5-3.45 8.67-7.59 10.89-12.81 1.61-3.77 2.11-7.92 2.33-12.02.18-3.31-.03-7.11-2.61-9.19-2.07-1.67-5.84-2.85-8.3-2.73z" clip-path="url(#b)"/>
    <defs>
        <path id="c" d="M106.08 66.74c4.54-3.03 15.53-9.08 18.35-16.65 1.9-5.1-3.37-9.33-6.16-12.69-3.61-4.33-10.23-7.67-15.5-6.4-3.15.76-9.94 3.2-14.24 3.07-5.24-.17-8.02-.36-11.47-.89-2.7-.41-6.65.09-11.6 1.65-4.99 1.57-9.01 3.38-14.03 6.64-1.98 1.29-4.37 3.46-5.67 5.6-1.97 3.24.57 8.34 5.47 8.99 6.32.84 12.97-6.02 20.1-8.99 2.11-.88 4.36-2.12 7.17-1.88 3.14.28 16.56 10.98 27.58 21.55z"/>
    </defs>
    <use xlink:href="#c" fill="#e48c15" overflow="visible"/>
    <use xlink:href="#c" fill="none" stroke="#e48c15" stroke-miterlimit="10" stroke-width="4" overflow="visible"/>
    <path fill="#e48c15" d="M67.19 85.74s-.04 4.74-.68 6.34c-.64 1.6-1.08 3.55-2.15 4.75l1.71.85c2.78-3.87 3.4-5.18 3.4-7.78-.01-2.85-2.28-4.16-2.28-4.16zM33.04 68.82s1.63 2.65.99 4.25c-.64 1.6-.98 3.23-2.05 4.43 0 0 .39-.42.9-.13.49.28.18.86.18.86l1.54-1.74c.91-1.15.97-2.96.55-4.55-.54-2.06-2.11-3.12-2.11-3.12zm11.78 4.27s.37 4.84-.26 6.44c-.64 1.6-.98 3.23-2.05 4.43 0 0 .62-.32 1.12-.04.49.28.22 1.06.22 1.06l2.22-2.6c.91-1.15 1.27-3.28 1.1-5.17-.24-2.66-2.35-4.12-2.35-4.12zm13.49 4.8s-2.15 7.24-2.79 8.84c-.64 1.6-.94 3.27-2.01 4.47 0 0 .6-.38 1.1-.1.49.28.21 1.08.21 1.08l2.7-3.14c.91-1.15 2.83-4.14 2.82-7.16-.02-2.85-2.03-3.99-2.03-3.99z"/>
    <defs>
        <path id="d" d="M67.41 95.35c-3.53 3.68-6.99 6.11-10.19 3.03-3.15-3.02-.92-6.62 2.61-10.31s7.67-6.11 10.52-3.37c2.9 2.79.59 6.97-2.94 10.65z"/>
    </defs>
    <use xlink:href="#d" fill="#e48c15" overflow="visible"/>
    <use xlink:href="#d" fill="none" stroke="#e48c15" stroke-miterlimit="10" stroke-width="2" overflow="visible"/>
    <defs>
        <path id="e" d="M56.73 89.2c-5.13 5.87-8.66 7.72-12.2 4.33-3.48-3.34-.42-7.59 3.82-12.37 5.38-6.05 9.46-7.77 12.61-4.76 3.21 3.09 1.23 6.55-4.23 12.8z"/>
    </defs>
    <use xlink:href="#e" fill="#e48c15" overflow="visible"/>
    <use xlink:href="#e" fill="none" stroke="#e48c15" stroke-miterlimit="10" stroke-width="2" overflow="visible"/>
    <defs>
        <path id="f" d="M44.2 83.32c-3.88 4.02-7.62 6.71-10.99 3.47-3.31-3.17-.69-6.94 3.02-11.12 4.06-4.59 8.35-6.72 11.35-3.85 3.05 2.93 1.34 6.61-3.38 11.5z"/>
    </defs>
    <use xlink:href="#f" fill="#e48c15" overflow="visible"/>
    <use xlink:href="#f" fill="none" stroke="#e48c15" stroke-miterlimit="10" stroke-width="2" overflow="visible"/>
    <defs>
        <path id="g" d="M33.25 77.06c-3.1 3.23-6.21 5.27-9.49 2.12-3.22-3.09-1.37-6.34 1.73-9.57s6.86-5.22 9.78-2.42c2.97 2.85 1.08 6.64-2.02 9.87z"/>
    </defs>
    <use xlink:href="#g" fill="#e48c15" overflow="visible"/>
    <use xlink:href="#g" fill="none" stroke="#e48c15" stroke-miterlimit="10" stroke-width="2" overflow="visible"/>
    <defs>
        <path id="h" d="M107.21 64.41c4.69-3.13 16.07-9.39 18.98-17.23 1.96-5.27-3.48-9.65-6.37-13.13-3.73-4.48-10.58-7.94-16.04-6.63-3.26.78-10.28 3.31-14.74 3.17-5.43-.17-8.29-.37-11.86-.92-2.8-.43-6.88.09-12 1.7-5.16 1.62-9.32 3.49-14.51 6.87-2.04 1.33-4.52 3.58-5.86 5.8-2.03 3.36.59 8.63 5.66 9.3 6.54.87 13.42-6.23 20.79-9.3 2.18-.91 4.51-2.19 7.41-1.94 3.26.31 17.14 11.37 28.54 22.31z"/>
    </defs>
    <use xlink:href="#h" fill="#fac036" overflow="visible"/>
    <defs>
        <path id="i" d="M64.65 96.52c-3.48 3.62-6.87 6.01-10.02 2.98-3.09-2.97-.91-6.51 2.57-10.14 3.48-3.62 7.54-6.01 10.34-3.32 2.86 2.75.59 6.86-2.89 10.48z"/>
    </defs>
    <use xlink:href="#i" fill="#fac036" overflow="visible"/>
    <defs>
        <path id="j" d="M54.15 90.47c-5.05 5.77-8.52 7.6-12 4.26-3.42-3.28-.42-7.47 3.76-12.16 5.29-5.95 9.31-7.65 12.4-4.68 3.15 3.03 1.21 6.44-4.16 12.58z"/>
    </defs>
    <use xlink:href="#j" fill="#fac036" overflow="visible"/>
    <defs>
        <path id="k" d="M41.82 84.68c-3.82 3.95-7.5 6.59-10.81 3.42-3.25-3.12-.68-6.83 2.97-10.94 4-4.51 8.21-6.61 11.16-3.78 3.01 2.88 1.33 6.5-3.32 11.3z"/>
    </defs>
    <use xlink:href="#k" fill="#fac036" overflow="visible"/>
    <defs>
        <path id="l" d="M31.06 78.53c-3.05 3.18-6.11 5.18-9.34 2.09-3.17-3.04-1.35-6.24 1.7-9.41 3.05-3.18 6.75-5.13 9.62-2.38 2.93 2.8 1.07 6.52-1.98 9.7z"/>
    </defs>
    <use xlink:href="#l" fill="#fac036" overflow="visible"/>
</svg>