<svg xmlns="http://www.w3.org/2000/svg" xml:space="preserve" width="534" height="534" style="fill-rule:evenodd;clip-rule:evenodd;stroke-linejoin:round;stroke-miterlimit:2">
    <ellipse cx="77.25" cy="294.334" rx="181.833" ry="163.458" style="fill:#6d4c41"/>
    <path d="M96.667 513.75c75.666-.333 120.667-50.583 124.417-131.208v-92.208c0-73-59.167-132.167-132.167-132.167h-4.834c-73 0-132.166 59.167-132.166 132.167v87.416c0 75.625 74.208 136.292 144.75 136Z" style="fill:#fcc21b;fill-rule:nonzero"/>
    <clipPath id="a">
        <path d="M93.75 513.709c81.833.583 124.084-53.959 127.334-131.167v-92.208c0-73-59.167-132.167-132.167-132.167h-4.834c-73 0-132.166 59.167-132.166 132.167v87.416c0 75.625 75.375 135.5 141.833 135.959Z"/>
    </clipPath>
    <g clip-path="url(#a)">
        <path d="M239.568 486.125c-28.084 10.125-59.084-4.125-69.292-31.875-10.208-27.708 4.208-58.416 32.292-68.541 28-10.084 59.083 4.208 69.333 31.916 10.208 27.75-4.292 58.417-32.333 68.5Z" opacity=".6" style="fill:url(#b);fill-rule:nonzero"/>
    </g>
    <clipPath id="c">
        <path d="M93.75 513.709c81.833.583 124.084-53.959 127.334-131.167v-92.208c0-73-59.167-132.167-132.167-132.167h-4.834c-73 0-132.166 59.167-132.166 132.167v87.416c0 75.625 75.375 135.5 141.833 135.959Z"/>
    </clipPath>
    <g clip-path="url(#c)">
        <path d="M49.625 486.125C21.542 496.25-9.458 482-19.667 454.25c-10.208-27.708 4.209-58.416 32.292-68.541 28-10.084 59.083 4.208 69.333 31.916 10.209 27.75-4.291 58.417-32.333 68.5Z" opacity=".6" style="fill:url(#d);fill-rule:nonzero"/>
    </g>
    <path d="M107.542 295.917c24.625 7.458 67.208 16.375 86.166 25.208 17.251 8.084 27.542 27.167 27.542 46.209l31.834-107.292-70.667-84.417-76.334-21.792H-1.958l-82.125 91.834-1.375 231.917 24.958 7.25-8.792-118.875c0-18.125 6.5 13.916 21.792 4.208 14.292-9.042 70.417-55.833 84.875-99.167 3.125-9.333 6.083-6.958 12.5-2.208 10.167 7.458 31 19.042 57.667 27.125Z" style="fill:#6d4c41"/>
    <path d="M108.958 392.625c5.875 2.334 9.917 2.667 14.625 2.667 4.709 0 8.75-.375 14.625-2.667 2.5-1 5.209 1.459 4.667 3.75-1.792 7.542-9.375 13.75-19.292 13.75-9.916 0-17.75-6.5-19.291-13.75-.5-2.291 2.125-4.708 4.666-3.75Z" style="fill:#e48c15"/>
    <path d="M189.167 352.375c1.541.209 2.666 4.042 1.333 10.75-1.625 8.125-7.25 14.292-12.375 16.792-6.417 3.167-19.167 5.375-29.292-1.708-11.625-8.125-8.208-14.875-4-13.334 4.292 1.584 12.042 3.25 18.459 2.834 6.625-.417 13.833-3.625 18.458-7.875 3.375-3.125 5.75-7.667 7.417-7.459Zm-95.625.584c1.541.25 2.541 4.083 1.041 10.791-1.791 8.084-7.625 14.084-12.791 16.5-6.5 3-19.292 4.875-29.25-2.458-11.417-8.417-7.834-15.083-3.667-13.417 4.25 1.667 11.958 3.542 18.375 3.292 6.667-.25 13.917-3.292 18.667-7.417 3.458-3.041 6-7.541 7.625-7.291ZM126.458 431c1.084 1.25 3.542 1.584 6.042 1.875 4.125.459 10 .584 12.708 4.25 2.167 3 1.792 7.417.042 10.084-2.667 4.041-7.333 3.583-11.708 5.208-1.125.417-1.75 1.667-1.625 2.792.041.416.208.833.541 1.208 1.459 1.375 3.667 1.375 5.542 1.542 1.917.166 4.583.5 6.167 2 2.875 2.708 2.75 6.666.541 9.458-2.958 3.75-9.875 4.75-13.125 7.292-1.708 1.333-3.916 3.291-3.208 6.458.833 3.625 6.542 4.917 10.792.333 3.958-4.208 11.083-6.333 13.958-11.375 3-5.25 1.958-10.625-1.417-15.708-1.583-2.458 1.167-6 2.125-9.292.875-3.041.959-5.875.084-8.958-2.459-9.583-12.375-9.708-20.167-12.875-1.792-.708-4.375-.917-6.333.042-1.584.833-2.667 3.666-.959 5.666Z" style="fill:#444;fill-rule:nonzero"/>
    <defs>
        <radialGradient id="b" cx="0" cy="0" r="1" gradientTransform="matrix(54.0867 0 0 53.4546 221.084 435.93)" gradientUnits="userSpaceOnUse">
            <stop offset="0" style="stop-color:#db4437;stop-opacity:.6"/>
            <stop offset="1" style="stop-color:#db4437;stop-opacity:0"/>
        </radialGradient>
        <radialGradient id="d" cx="0" cy="0" r="1" gradientTransform="matrix(54.0867 0 0 53.4546 31.141 435.93)" gradientUnits="userSpaceOnUse">
            <stop offset="0" style="stop-color:#db4437;stop-opacity:.6"/>
            <stop offset="1" style="stop-color:#db4437;stop-opacity:0"/>
        </radialGradient>
    </defs>
</svg>