<svg xmlns="http://www.w3.org/2000/svg" xml:space="preserve" width="534" height="534" style="fill-rule:evenodd;clip-rule:evenodd;stroke-linejoin:round;stroke-miterlimit:2">
    <path d="M423.75 517c-76.375-.333-121.833-51.041-125.625-132.416v-93.125c0-73.709 59.75-133.459 133.459-133.459h4.875c73.708 0 133.458 59.75 133.458 133.459v88.25C569.875 456.084 495 517.334 423.75 517Z" style="fill:#fadcbc;fill-rule:nonzero"/>
    <clipPath id="a">
        <path d="M426.834 517c-80.75 1.625-125.959-55.083-128.709-132.416v-93.125c0-73.709 59.75-133.459 133.459-133.459h4.875c73.708 0 133.458 59.75 133.458 133.459v88.25C569.875 451.959 500.25 515.5 426.834 517Z"/>
    </clipPath>
    <g clip-path="url(#a)">
        <path d="M314.075 489.151c-28.083 10.125-59.083-4.125-69.291-31.875-10.209-27.708 4.208-58.417 32.291-68.542 28-10.083 59.084 4.209 69.334 31.917 10.208 27.75-4.292 58.417-32.334 68.5Z" opacity=".6" style="fill:url(#b);fill-rule:nonzero"/>
    </g>
    <clipPath id="c">
        <path d="M426.834 517c-80.75 1.625-125.959-55.083-128.709-132.416v-93.125c0-73.709 59.75-133.459 133.459-133.459h4.875c73.708 0 133.458 59.75 133.458 133.459v88.25C569.875 451.959 500.25 515.5 426.834 517Z"/>
    </clipPath>
    <g clip-path="url(#c)">
        <path d="M508.392 489.151c-28.083 10.125-59.083-4.125-69.292-31.875-10.208-27.708 4.209-58.417 32.292-68.542 28-10.083 59.083 4.209 69.333 31.917 10.209 27.75-4.291 58.417-32.333 68.5Z" opacity=".6" style="fill:url(#d);fill-rule:nonzero"/>
    </g>
    <path d="M334.688 180.996c21.723-16.104 51.883-29.066 93.831-27.74 0 0 1.997.02 2.918.068.831.043 2.906.233 2.906.233 30.276 2.443 54.919 11.657 74.484 23.695 6.572 2.478 12.857 5.583 18.276 9.083 3.294 2.126 6.273 4.452 9.219 7.059.605.538 2.859 1.945 3.041 2.728.213.876-1.747-.224-2.625-.344-1.259-.174-2.536-.331-3.794-.563l-.414-.071a153.603 153.603 0 0 1 12.946 13.366 77.749 77.749 0 0 1 6.426 4.842c2.615 2.199 4.737 4.846 6.766 7.589.7.951 1.425 1.879 2.025 2.9.382.644 1.833 1.884 1.114 1.93-1.341.088-2.933-.718-4.37-1.267 3.834 5.939 6.78 11.533 8.89 16.401 7.426 17.148 11.592 33.604 13.703 48.563 4.579 6.735 8.254 14.005 8.773 20.987.084 1.078-1.6-1.447-2.438-2.114-1.557-1.246-3.207-2.346-4.815-3.519a184.718 184.718 0 0 1-.502 27.852c2.912 3.894 7.25 9.011 7.644 13.965.029.451-.796-.416-1.181-.635-1.085-.614-2.072-1.189-3.054-1.981a50.105 50.105 0 0 1-4.274-3.865c-1.853 13.431-4.591 21.376-4.591 21.376s-1.692-1.952-4.943-4.757c-3.499-2.985-7.365-4.8-7.365-4.8 4.562 24.313 7.948 62.999-2.168 79.13-15.352-14.265-35.488-61.423-39.168-140.606-5.474 4.492-11.024 8.497-15.771 10.281.302 1.463.597 2.926 1.008 4.303.47 1.58 1.031 3.14 1.733 4.624.378.785 2.077 2.47 1.242 2.294-2.028-.421-5.036-3.772-6.813-5.004-3.586-2.498-7.369-4.616-11.39-6.122-4.001-.466-7.989-1.063-11.905-1.957 1.337 5.111 2.393 10.307 2.682 15.563.103 1.869.143 7.287-1.294 8.519 0 0-1.286-1.897-1.388-2.06a347.51 347.51 0 0 0-2.66-4.107c-2.561-3.893-5.114-7.761-8.091-11.351-5.527-6.676-11.259-13.004-17.659-18.494-6.232-3.251-12.474-6.487-19.095-8.926-8.802-3.252-17.923-4.107-26.943-6.264a58.708 58.708 0 0 1-4.677-1.349c-.913-.014-1.827-.019-2.732-.016 4.822 13.028 6.17 27.258 1.817 40.26-1.937 5.773-4.704 11.228-8.264 16.094-.262.36-2.814 3.889-3.458 3.581-1.844-.894-4.485-7.204-5.61-9.001-4.212-6.749-8.696-13.704-14.081-19.582-9.908-10.838-22.005-18.245-34.443-25.146-.538 47.9-16.661 111.814-47.238 140.254-7.192-17.943-4.915-57.875 2.168-79.13 0 0-4.035 1.405-7.598 4.024-3.314 2.465-5.198 4.231-5.198 4.231s-5.047-21.808-4.383-49.003c-1.536 1.268-4.335 4.575-6.045 4.761-.499.058.118-1.025.189-1.537.173-1.231.402-2.459.631-3.678a72.555 72.555 0 0 1 2.082-8.403c1.162-3.7 2.765-7.136 4.625-10.426 2.271-17.078 7.42-34.739 17.688-49.557-1.999-.261-3.94-.57-5.775-.89-2.354-.421-4.702-1.05-6.911-2.005-.291-.123-1.82-.56-1.909-.881 0 0 4.317-1.881 4.979-2.204 5.464-2.637 10.865-5.66 16.182-8.604a120.85 120.85 0 0 0 8.405-5.163c4.985-5.99 10.878-12.382 17.843-18.626a22.144 22.144 0 0 1-4.74-5.903c-1.493-2.69-2.876-5.773-3.15-8.874-.094-1.053.688-3.691 2.422-3.26 4.594 1.145 6.492 8.065 11.47 9.479 1.263.357 3.064.118 4.795-.25Z" style="fill:#212121;fill-rule:nonzero"/>
    <path d="M336.792 353c-1.542.125-2.875 3.959-1.833 10.792 1.25 8.292 6.625 14.75 11.708 17.542 6.333 3.5 19.083 6.333 29.625-.334 12.125-7.666 9-14.583 4.667-13.25-4.375 1.375-12.292 2.709-18.75 2-6.667-.75-13.792-4.333-18.25-8.833-3.292-3.333-5.5-8.083-7.167-7.917Zm95.958 1.542c-1.541.25-2.583 4.125-1.125 10.875 1.75 8.167 7.584 14.292 12.834 16.75 6.541 3.083 19.458 5.042 29.541-2.292 11.584-8.416 8-15.166 3.792-13.541-4.292 1.666-12.125 3.5-18.583 3.208-6.709-.292-14.042-3.417-18.792-7.625-3.5-3.083-6-7.625-7.667-7.375Z" style="fill:#444;fill-rule:nonzero"/>
    <path d="M392.584 394.75c5.958 2.334 10 2.709 14.791 2.709 4.75 0 8.834-.375 14.75-2.709 2.542-1 5.292 1.459 4.709 3.792-1.792 7.625-9.459 13.875-19.5 13.875-10 0-17.917-6.542-19.5-13.875-.459-2.333 2.208-4.792 4.75-3.792Z" style="fill:#dba689"/>
    <path d="M143.125 145.375c24.5 36.458 68.125 74.25 99.584 103.625 3.375 3.125 6.666 6.5 10.083 9.667 3.625 3.375 8.042 11.042 13.875 11.375 5.875-.333 10.25-8.042 13.875-11.375 3.417-3.167 6.75-6.542 10.125-9.667 31.458-29.333 75.083-67.167 99.542-103.625 7.333-10.875 12.708-22.583 14.916-35.542 2.167-13 2.084-31.625-3.25-44-12.541-29.25-33.916-45.958-63.208-45.791-1.083.041-2.167.041-3.25.083-11.5.208-22.625 2.75-33.167 7.167-11.291 4.75-19.041 11.875-29.083 18.25-3.792 2.416-9.208 2.375-12.958 0-10.042-6.375-17.75-13.5-29.084-18.25-10.541-4.375-21.708-6.959-33.167-7.167-1.083-.042-2.208-.042-3.25-.083C165.333 19.875 144 36.583 131.5 65.833c-5.292 12.375-5.417 31-3.25 44 2.167 12.917 7.625 24.625 14.875 35.542Z" style="fill:#f06292;fill-rule:nonzero"/>
    <path d="M404.5 431c-1.083 1.25-3.541 1.584-6.041 1.875-4.125.459-10 .584-12.709 4.25-2.166 3-1.791 7.417-.041 10.084 2.666 4.041 7.333 3.583 11.708 5.208 1.125.417 1.75 1.667 1.625 2.792a2.112 2.112 0 0 1-.542 1.208c-1.458 1.375-3.666 1.375-5.541 1.542-1.917.166-4.584.5-6.167 2-2.875 2.708-2.75 6.666-.542 9.458 2.959 3.75 9.875 4.75 13.125 7.292 1.709 1.333 3.917 3.291 3.209 6.458-.834 3.625-6.542 4.917-10.792.333-3.958-4.208-11.083-6.333-13.958-11.375-3-5.25-1.959-10.625 1.416-15.708 1.584-2.458-1.166-6-2.125-9.292-.875-3.041-.958-5.875-.083-8.958 2.458-9.583 12.375-9.708 20.167-12.875 1.791-.708 4.375-.917 6.333.042 1.583.833 2.667 3.666.958 5.666Z" style="fill:#444;fill-rule:nonzero"/>
    <defs>
        <radialGradient id="b" cx="0" cy="0" r="1" gradientTransform="matrix(54.0867 0 0 53.4546 295.591 438.955)" gradientUnits="userSpaceOnUse">
            <stop offset="0" style="stop-color:#db4437;stop-opacity:.6"/>
            <stop offset="1" style="stop-color:#db4437;stop-opacity:0"/>
        </radialGradient>
        <radialGradient id="d" cx="0" cy="0" r="1" gradientTransform="matrix(54.0867 0 0 53.4546 489.908 438.955)" gradientUnits="userSpaceOnUse">
            <stop offset="0" style="stop-color:#db4437;stop-opacity:.6"/>
            <stop offset="1" style="stop-color:#db4437;stop-opacity:0"/>
        </radialGradient>
    </defs>
</svg>