<svg xmlns="http://www.w3.org/2000/svg" width="128" height="128">
    <path fill="#fcc21b" d="M14.93 61.24 14.27 63c-1.29 3.47-2.94 6.8-4.93 9.93l-6.48 10c-.93 1.42-.64 3.52.68 4.59 1.51 1.22 4.05.88 5.13-.74l15.75-23.61.32-4.08-9.81 2.15z"/>
    <path fill="#00bfa5" d="M35.98 49.81c-3.62-.01-8.17.42-10.59 1.06-7.55 2.01-9.4 5.56-11.65 11.65L35.98 71V49.81z"/>
    <path fill="#fcc21b" d="m57.03 61.24.66 1.76c1.29 3.47 2.94 6.8 4.93 9.93l6.48 10c.93 1.42.64 3.52-.68 4.59-1.51 1.22-4.05.88-5.13-.74l-15.76-23.6-.32-4.08 9.82 2.14z"/>
    <path fill="#00bfa5" d="M35.98 49.81c3.62-.01 8.17.42 10.59 1.06 7.55 2.01 9.4 5.56 11.65 11.65L35.98 71V49.81z"/>
    <path fill="#00bfa5" d="M22.15 62.39h13.84v19.5H22.15z"/>
    <path fill="#616161" d="M22.15 81.9h10.71v45.72H22.15z"/>
    <path fill="#444" d="M34.26 128h-13.5v-3.5c0-2.21 1.79-4 4-4h5.5c2.21 0 4 1.79 4 4v3.5z"/>
    <path fill="#00bfa5" d="M49.752 81.897h-13.77v-19.5h13.77z"/>
    <path fill="#616161" d="M49.747 127.607h-10.71v-45.72h10.71z"/>
    <path fill="#444" d="M37.64 128h13.5v-3.5c0-2.21-1.79-4-4-4h-5.5c-2.21 0-4 1.79-4 4v3.5z"/>
    <path fill="#fcc21b" d="M35.98 57.47c-2.92 0-5.29-2.37-5.29-5.29v-4.52h10.58v4.52c0 2.92-2.37 5.29-5.29 5.29z"/>
    <path fill="#e8a23d" d="M41.28 51.74s-2.02.82-5.29.82-5.3-.72-5.3-.72v-5.19c0-1.39.92-2.89 2.31-2.89h5.98c1.39 0 2.3 1.41 2.3 2.8v5.18z"/>
    <path fill="#e59600" d="M51.89 29.71s2.92.51 2.92 3.65c0 2.77-2.13 3.87-4.26 3.87v-7.51h1.34zm-31.82 0s-2.92.51-2.92 3.65c0 2.77 2.13 3.87 4.26 3.87v-7.51h-1.34z"/>
    <path fill="#fcc21b" d="M35.98 9.13c-12.57 0-15.86 9.75-15.86 23.44 0 14.2 9.13 17.87 15.86 17.87 6.64 0 15.86-3.57 15.86-17.87.01-13.69-3.28-23.44-15.86-23.44z"/>
    <path fill="#444" d="M30.76 33.84c0 1.41-.95 2.56-2.12 2.56-1.17 0-2.12-1.15-2.12-2.56 0-1.42.95-2.56 2.12-2.56 1.17 0 2.12 1.15 2.12 2.56m10.44 0c0 1.41.95 2.56 2.12 2.56 1.17 0 2.12-1.15 2.12-2.56 0-1.42-.95-2.56-2.12-2.56-1.17 0-2.12 1.15-2.12 2.56"/>
    <path fill="#513f35" d="M40.57 42.49h-9.18c-.53 0-.75.35-.4.88.49.74 2.3 2.17 5 2.17s4.51-1.43 5-2.17c.34-.52.11-.88-.42-.88z"/>
    <path fill="#e59600" d="M38.2 38.59c-.78.22-1.59.33-2.22.33-.63 0-1.44-.11-2.22-.33-.33-.09-.47.22-.35.43.25.44 1.25 1.32 2.56 1.32 1.32 0 2.32-.88 2.56-1.32.14-.21 0-.52-.33-.43z"/>
    <path fill="#6d4c41" d="M36.36 7.34s-.25-.01-.35-.01c-.11 0-.35.01-.35.01C22.09 7.61 18 15.77 18 21.43c0 5.5.01 9.54.01 9.54s.22-.22.61-.53c.42-.33.9-.52.9-.52l.69 4.6 4.52-9.45c.03-.06.09-.09.15-.09l2.68.3c2.69.3 5.4.44 8.1.45v.01h.7v-.01c2.71-.01 5.41-.15 8.1-.45l2.68-.3c.06-.01.13.03.15.09l4.52 9.45.69-4.6s.47.19.9.52c.4.31.61.53.61.53s.01-4.04.01-9.54c0-5.66-4.09-13.82-17.66-14.09z"/>
    <path fill="#616161" d="M49.75 81.9h-27.6v15.54h10.71v-.9a2.39 2.39 0 0 1 2.39-2.39h1.4a2.39 2.39 0 0 1 2.39 2.39v.9h10.71V81.9z"/>
</svg>