<svg xmlns="http://www.w3.org/2000/svg" width="128" height="128">
    <g clip-path="url(#b)">
        <path fill="#6d4c41" d="M-36.84 45.53s0 48.72 6.28 71.38c3.1 11.16 6.95 18.2 16.22 11.24l35.94-.36c9.25 7.06 15.88.29 17.87-11.17 4.71-27.07 4.71-71.09 4.71-71.09h-81.02z"/>
        <ellipse cx="3.79" cy="45.29" fill="#6d4c41" rx="40.51" ry="36.42"/>
        <path fill="#651fff" d="M20.24 101.86c-5.7-1.08-27.77-1.08-33.47 0-18.04 3.43-31.26 11.39-31.26 28.36v57.83l48 .01 48-.01v-57.83c-.01-16.97-13.23-24.93-31.27-28.36z"/>
        <path fill="#e59900" d="M4.02 114.14c-6.08 0-10.9-4.93-10.9-11.01v-9.5h21.8v9.5c0 6.08-4.82 11.01-10.9 11.01z"/>
        <path fill="#444" d="M-4.15 63.79c0 2.91-1.94 5.26-4.35 5.26-2.41 0-4.36-2.36-4.36-5.26 0-2.91 1.96-5.27 4.36-5.27 2.41 0 4.35 2.36 4.35 5.27"/>
        <path fill="#fcc21b" d="M3.79 17.65c-24.91 0-31.42 19.31-31.42 46.43s19.32 35.4 31.42 35.4c12.1 0 31.42-8.27 31.42-35.4S28.69 17.65 3.79 17.65z"/>
        <path fill="#444" d="M-6.96 65.19c0 2.91-1.95 5.27-4.36 5.27s-4.37-2.36-4.37-5.27c0-2.92 1.96-5.27 4.37-5.27 2.41-.01 4.36 2.35 4.36 5.27m21.49 0c0 2.91 1.95 5.27 4.37 5.27 2.41 0 4.36-2.36 4.36-5.27 0-2.92-1.96-5.27-4.36-5.27-2.42-.01-4.37 2.35-4.37 5.27"/>
        <path fill="#6d4c41" d="M13.29 38.92C9.98 42.1-6.47 56.93-29.14 60.8V30.41S-19.36 11 4.12 11s33.26 19.9 33.26 19.9v29.9S22 54.9 14.27 39.11a.615.615 0 0 0-.98-.19z"/>
        <path fill="#4c3734" d="M13.23 82.98H-5.65c-1.08 0-1.55.73-.83 1.82 1 1.53 4.72 4.46 10.28 4.46s9.27-2.94 10.28-4.46c.7-1.09.23-1.82-.85-1.82z"/>
        <path fill="#e48c15" d="M8.35 75.54c-1.61.46-3.27.68-4.56.68S.83 76-.77 75.54c-.69-.19-.96.46-.71.89.51.9 2.56 2.71 5.27 2.71 2.71 0 4.76-1.81 5.27-2.71.25-.43-.02-1.09-.71-.89z"/>
    </g>
</svg>