<svg xmlns="http://www.w3.org/2000/svg" xml:space="preserve" width="128" height="128" style="fill-rule:evenodd;clip-rule:evenodd;stroke-linejoin:round;stroke-miterlimit:2">
    <g clip-path="url(#_clip2)">
        <ellipse cx="124.09" cy="45.29" rx="40.51" ry="36.42" style="fill:#6d4c41"/>
        <path d="M107.64 101.86c5.7-1.08 27.77-1.08 33.47 0 18.04 3.43 31.26 11.39 31.26 28.36v57.83l-48 .01-48-.01v-57.83c0-16.97 13.23-24.93 31.27-28.36Z" style="fill:#da4105;fill-rule:nonzero"/>
        <path d="M123.86 114.14c6.08 0 10.9-4.93 10.9-11.01v-9.5h-21.8v9.5c0 6.08 4.82 11.01 10.9 11.01Z" style="fill:#e59900;fill-rule:nonzero"/>
        <path d="M124.09 17.65c24.91 0 31.42 19.31 31.42 46.43s-19.32 35.4-31.42 35.4c-12.1 0-31.42-8.27-31.42-35.4s6.51-46.43 31.42-46.43Z" style="fill:#fcc21b;fill-rule:nonzero"/>
        <path d="M134.84 65.19c0 2.91 1.95 5.27 4.36 5.27s4.37-2.36 4.37-5.27c0-2.92-1.96-5.27-4.37-5.27-2.42-.01-4.36 2.35-4.36 5.27m-21.49 0c0 2.91-1.95 5.27-4.37 5.27-2.41 0-4.36-2.36-4.36-5.27 0-2.92 1.96-5.27 4.36-5.27 2.42-.01 4.37 2.35 4.37 5.27" style="fill:#444;fill-rule:nonzero"/>
        <path d="M114.59 38.92c3.31 3.18 19.76 18.01 42.42 21.87V30.41S147.23 11 123.75 11c-23.48 0-33.26 19.9-33.26 19.9v29.9s15.38-5.9 23.11-21.69c.18-.38.68-.48.99-.19Z" style="fill:#6d4c41;fill-rule:nonzero"/>
        <path d="M114.64 82.98h18.88c1.08 0 1.55.73.83 1.82-1 1.53-4.72 4.46-10.28 4.46s-9.27-2.94-10.28-4.46c-.69-1.09-.23-1.82.85-1.82Z" style="fill:#4c3734;fill-rule:nonzero"/>
        <path d="M119.53 75.54c1.61.46 3.27.68 4.56.68 1.29 0 2.96-.22 4.56-.68.69-.19.96.46.71.89-.51.9-2.56 2.71-5.27 2.71-2.71 0-4.76-1.81-5.27-2.71-.25-.43.02-1.09.71-.89Z" style="fill:#e48c15;fill-rule:nonzero"/>
    </g>
    <path d="M33.36 40.87c6.07 9.04 16.89 18.42 24.69 25.69.83.78 1.66 1.61 2.5 2.4.9.83 1.99 2.74 3.44 2.83 1.46-.09 2.54-1.99 3.44-2.83.85-.79 1.67-1.62 2.51-2.4 7.8-7.28 18.62-16.66 24.68-25.69 1.82-2.7 3.15-5.6 3.7-8.81.54-3.22.51-7.85-.8-10.91-3.11-7.25-8.4-11.4-15.67-11.36-.27.01-.53.01-.81.01-2.85.05-5.61.69-8.23 1.77-2.8 1.18-4.73 2.94-7.21 4.52-.94.6-2.28.59-3.22 0-2.49-1.58-4.41-3.35-7.21-4.52-2.62-1.09-5.38-1.73-8.23-1.77-.26-.01-.54-.01-.81-.02-7.28-.04-12.57 4.11-15.67 11.36-1.32 3.07-1.34 7.69-.8 10.91.55 3.22 1.9 6.12 3.7 8.82Z" style="fill:#f06292;fill-rule:nonzero"/>
</svg>