<svg xmlns="http://www.w3.org/2000/svg" width="128" height="128">
    <g clip-path="url(#b)">
        <path fill="#00bfa5" d="M-11.66 101.86c5.7-1.08 27.77-1.08 33.47 0 18.04 3.43 31.26 11.39 31.26 28.36v57.83l-48 .01-48-.01v-57.83c.01-16.97 13.23-24.93 31.27-28.36z"/>
        <path fill="#e59900" d="M5.5 114.35c6.08 0 10.5-4.93 10.5-11.01V93H-5v10.34c0 6.08 4.42 11.01 10.5 11.01z"/>
        <path fill="#e48c15" d="M-28.64 55.97s-6.09 1.06-6.09 7.62c0 5.79 4.44 8.07 8.89 8.07V55.97h-2.8zm66.64 0s6.27 1.44 6.27 8.31c0 6.32-4.85 8.81-9.7 8.81V55.97H38z"/>
        <path fill="#fcc21b" d="M4.58 13c26.25 0 33.13 20.35 33.13 48.94 0 29.65-19.06 37.31-33.13 37.31-13.86 0-33.13-7.45-33.13-37.31C-28.54 33.35-21.67 13 4.58 13z"/>
        <path fill="#4c3734" d="M-4.91 81.69h18.98c1.09 0 1.55.73.84 1.83C13.9 85.05 10.16 88 4.58 88s-9.32-2.95-10.32-4.48c-.72-1.1-.26-1.83.83-1.83z"/>
        <path fill="#e48c15" d="M0 74.22c1.61.46 3.29.68 4.58.68s2.97-.22 4.58-.68c.69-.2.96.46.71.89-.51.9-2.57 2.72-5.3 2.72-2.72 0-4.79-1.82-5.3-2.72-.23-.43.04-1.09.73-.89z"/>
        <path fill="#444" d="M15.38 63.82c0 2.92 1.96 5.29 4.38 5.29s4.39-2.37 4.39-5.29c0-2.93-1.97-5.3-4.39-5.3-2.43 0-4.38 2.37-4.38 5.3m-21.59 0c0 2.92-1.96 5.29-4.39 5.29-2.42 0-4.38-2.37-4.38-5.29 0-2.93 1.97-5.3 4.38-5.3 2.43 0 4.39 2.37 4.39 5.3"/>
        <path fill="#6d4c41" d="M42.16 58.52s.01-8.44.01-19.93c0-12.01-8.81-29.44-38.27-29.44-20.56 0-28.25 8.94-28.25 14.36 0 0-7.64 1.37-8.39 11.15-.53 6.87.15 23.39.15 23.39s.83-.74 1.77-1.17c.5-.23 1-.33 1-.33l1.38 9.43 10.23-19.8c.06-.12.19-.19.32-.17l4.14.49c11.94 1.41 24.01 1.46 35.96.13l5.59-.62c.13-.01.26.06.32.18l9.44 19.72 1.43-9.6s.98.39 1.87 1.08c.85.66 1.3 1.13 1.3 1.13z"/>
    </g>
</svg>