<svg xmlns="http://www.w3.org/2000/svg" width="128" height="128">
    <g clip-path="url(#b)">
        <path fill="#00bfa5" d="M139.81 101.86c-5.7-1.08-27.77-1.08-33.47 0-18.04 3.43-31.26 11.39-31.26 28.36v57.83l48 .01 48-.01v-57.83c0-16.97-13.23-24.93-31.27-28.36z"/>
        <path fill="#e59900" d="M122.5 114.35c-6.08 0-10.5-4.93-10.5-11.01V93h21v10.34c0 6.08-4.42 11.01-10.5 11.01z"/>
        <path fill="#e48c15" d="M156.79 55.97s6.09 1.06 6.09 7.62c0 5.79-4.44 8.07-8.89 8.07V55.97h2.8zm-66.64 0s-6.27 1.44-6.27 8.31c0 6.32 4.85 8.81 9.7 8.81V55.97h-3.43z"/>
        <path fill="#fcc21b" d="M123.57 13c-26.25 0-33.13 20.35-33.13 48.94 0 29.65 19.06 37.31 33.13 37.31 13.86 0 33.13-7.45 33.13-37.31 0-28.59-6.88-48.94-33.13-48.94z"/>
        <path fill="#4c3734" d="M133.06 81.69h-18.98c-1.09 0-1.56.73-.84 1.83 1.01 1.53 4.75 4.48 10.32 4.48 5.58 0 9.32-2.95 10.32-4.48.73-1.1.27-1.83-.82-1.83z"/>
        <path fill="#e48c15" d="M128.15 74.22c-1.61.46-3.29.68-4.58.68s-2.97-.22-4.58-.68c-.69-.2-.96.46-.71.89.51.9 2.57 2.72 5.3 2.72 2.72 0 4.79-1.82 5.3-2.72.23-.43-.04-1.09-.73-.89z"/>
        <path fill="#444" d="M112.77 63.82c0 2.92-1.96 5.29-4.38 5.29S104 66.74 104 63.82c0-2.93 1.97-5.3 4.39-5.3 2.43 0 4.38 2.37 4.38 5.3m21.59 0c0 2.92 1.96 5.29 4.39 5.29 2.42 0 4.38-2.37 4.38-5.29 0-2.93-1.97-5.3-4.38-5.3-2.43 0-4.39 2.37-4.39 5.3"/>
        <path fill="#6d4c41" d="M85.99 58.52s-.01-8.44-.01-19.93c0-12.01 8.81-29.44 38.27-29.44 20.56 0 28.25 8.94 28.25 14.36 0 0 7.64 1.37 8.39 11.15.53 6.87-.15 23.39-.15 23.39s-.83-.74-1.77-1.17c-.5-.23-1-.33-1-.33l-1.38 9.43-10.23-19.8a.309.309 0 0 0-.32-.17l-4.14.49a157.829 157.829 0 0 1-35.96.13l-5.59-.62a.332.332 0 0 0-.32.18l-9.44 19.72-1.43-9.6s-.98.39-1.87 1.08c-.85.66-1.3 1.13-1.3 1.13z"/>
    </g>
    <g clip-path="url(#b)">
        <path fill="#f06292" d="M33.36 40.87c6.07 9.04 16.89 18.42 24.69 25.69.83.78 1.66 1.61 2.5 2.4.9.83 1.99 2.74 3.44 2.83 1.46-.09 2.54-1.99 3.44-2.83.85-.79 1.67-1.62 2.51-2.4 7.8-7.28 18.62-16.66 24.68-25.69 1.82-2.7 3.15-5.6 3.7-8.81.54-3.22.51-7.85-.8-10.91-3.11-7.25-8.4-11.4-15.67-11.36-.27.01-.53.01-.81.01-2.85.05-5.61.69-8.23 1.77-2.8 1.18-4.73 2.94-7.21 4.52-.94.6-2.28.59-3.22 0-2.49-1.58-4.41-3.35-7.21-4.52-2.62-1.09-5.38-1.73-8.23-1.77-.26-.01-.54-.01-.81-.02-7.28-.04-12.57 4.11-15.67 11.36-1.32 3.07-1.34 7.69-.8 10.91.55 3.22 1.9 6.12 3.7 8.82z"/>
    </g>
</svg>