<svg xmlns="http://www.w3.org/2000/svg" xml:space="preserve" width="534" height="534" style="fill-rule:evenodd;clip-rule:evenodd;stroke-linejoin:round;stroke-miterlimit:2">
    <path d="M246.375 551.209c12.5-116.584 12.5-255.792 12.5-255.792h-363.709s0 146.792 15.5 255.792h335.709Z" style="fill:#6d4c41;fill-rule:nonzero"/>
    <ellipse cx="77.583" cy="294.334" rx="181.833" ry="163.458" style="fill:#6d4c41"/>
    <path d="M97 513.75c75.667-.333 120.667-50.583 124.417-131.208v-92.208c0-73-59.167-132.167-132.167-132.167h-4.833c-73.001 0-132.167 59.167-132.167 132.167v87.416c0 75.625 74.208 136.292 144.75 136Z" style="fill:#fcc21b;fill-rule:nonzero"/>
    <clipPath id="a">
        <path d="M94.083 513.709c81.834.583 124.084-53.959 127.334-131.167v-92.208c0-73-59.167-132.167-132.167-132.167h-4.833c-73.001 0-132.167 59.167-132.167 132.167v87.416c0 75.625 75.375 135.5 141.833 135.959Z"/>
    </clipPath>
    <g clip-path="url(#a)">
        <path d="M242.919 485.05c-28.083 10.125-59.083-4.125-69.292-31.875-10.208-27.708 4.209-58.416 32.292-68.541 28-10.084 59.083 4.208 69.334 31.916 10.208 27.75-4.292 58.417-32.334 68.5Z" opacity=".6" style="fill:url(#b);fill-rule:nonzero"/>
    </g>
    <clipPath id="c">
        <path d="M94.083 513.709c81.834.583 124.084-53.959 127.334-131.167v-92.208c0-73-59.167-132.167-132.167-132.167h-4.833c-73.001 0-132.167 59.167-132.167 132.167v87.416c0 75.625 75.375 135.5 141.833 135.959Z"/>
    </clipPath>
    <g clip-path="url(#c)">
        <path d="M49.958 486.125C21.875 496.25-9.125 482-19.334 454.25c-10.208-27.708 4.209-58.416 32.292-68.541 28-10.084 59.084 4.208 69.334 31.916 10.208 27.75-4.292 58.417-32.334 68.5Z" opacity=".6" style="fill:url(#d);fill-rule:nonzero"/>
    </g>
    <path d="M107.875 295.917c24.625 7.458 67.208 16.375 86.167 25.208 17.25 8.084 27.541 27.167 27.541 46.209V464.5l23.792-47.125 8.042-157.333-70.667-84.417-76.333-21.792H-1.625l-82.125 91.834-1.375 231.917 24.958 7.25-8.792-118.875c0-18.125 6.5 13.916 21.792 4.208 14.292-9.042 70.417-55.833 84.875-99.167 3.125-9.333 6.083-6.958 12.5-2.208 10.167 7.458 31 19.042 57.667 27.125Z" style="fill:#6d4c41;fill-rule:nonzero"/>
    <path d="M109.292 392.625c5.875 2.334 9.916 2.667 14.625 2.667 4.708 0 8.75-.375 14.625-2.667 2.5-1 5.208 1.459 4.666 3.75-1.791 7.542-9.375 13.75-19.291 13.75-9.917 0-17.75-6.5-19.292-13.75-.5-2.291 2.125-4.708 4.667-3.75Z" style="fill:#e48c15;fill-rule:nonzero"/>
    <path d="M189.5 352.375c1.542.209 2.667 4.042 1.333 10.75-1.625 8.125-7.25 14.292-12.375 16.792-6.416 3.167-19.166 5.375-29.291-1.708-11.625-8.125-8.209-14.875-4-13.334 4.291 1.584 12.041 3.25 18.458 2.834 6.625-.417 13.833-3.625 18.458-7.875 3.375-3.125 5.75-7.667 7.417-7.459Zm-95.625.584c1.542.25 2.542 4.083 1.042 10.791-1.792 8.084-7.625 14.084-12.792 16.5-6.5 3-19.292 4.875-29.25-2.458-11.417-8.417-7.834-15.083-3.667-13.417 4.25 1.667 11.959 3.542 18.375 3.292 6.667-.25 13.917-3.292 18.667-7.417 3.458-3.041 6-7.541 7.625-7.291ZM126.792 431c1.083 1.25 3.541 1.584 6.041 1.875 4.125.459 10 .584 12.709 4.25 2.166 3 1.791 7.417.041 10.084-2.666 4.041-7.333 3.583-11.708 5.208-1.125.417-1.75 1.667-1.625 2.792.042.416.208.833.542 1.208 1.458 1.375 3.666 1.375 5.541 1.542 1.917.166 4.584.5 6.167 2 2.875 2.708 2.75 6.666.542 9.458-2.959 3.75-9.875 4.75-13.125 7.292-1.709 1.333-3.917 3.291-3.209 6.458.834 3.625 6.542 4.917 10.792.333 3.958-4.208 11.083-6.333 13.958-11.375 3-5.25 1.959-10.625-1.416-15.708-1.584-2.458 1.166-6 2.125-9.292.875-3.041.958-5.875.083-8.958-2.458-9.583-12.375-9.708-20.167-12.875-1.791-.708-4.375-.917-6.333.042-1.583.833-2.667 3.666-.958 5.666Z" style="fill:#444;fill-rule:nonzero"/>
    <defs>
        <radialGradient id="b" cx="0" cy="0" r="1" gradientTransform="matrix(54.0867 0 0 53.4546 224.435 434.855)" gradientUnits="userSpaceOnUse">
            <stop offset="0" style="stop-color:#db4437;stop-opacity:.6"/>
            <stop offset="1" style="stop-color:#db4437;stop-opacity:0"/>
        </radialGradient>
        <radialGradient id="d" cx="0" cy="0" r="1" gradientTransform="matrix(54.0867 0 0 53.4546 31.474 435.93)" gradientUnits="userSpaceOnUse">
            <stop offset="0" style="stop-color:#db4437;stop-opacity:.6"/>
            <stop offset="1" style="stop-color:#db4437;stop-opacity:0"/>
        </radialGradient>
    </defs>
</svg>