<svg xmlns="http://www.w3.org/2000/svg" xml:space="preserve" width="534" height="534" style="fill-rule:evenodd;clip-rule:evenodd;stroke-linejoin:round;stroke-miterlimit:2">
    <path d="M287.625 551.209c-12.5-116.584-12.5-255.792-12.5-255.792h363.709s0 146.792-15.5 255.792H287.625Z" style="fill:#6d4c41;fill-rule:nonzero"/>
    <ellipse cx="456.417" cy="294.334" rx="181.833" ry="163.458" style="fill:#6d4c41"/>
    <path d="M437 513.75c-75.667-.333-120.667-50.583-124.417-131.208v-92.208c0-73 59.167-132.167 132.167-132.167h4.833c73.001 0 132.167 59.167 132.167 132.167v87.416c0 75.625-74.208 136.292-144.75 136Z" style="fill:#fcc21b;fill-rule:nonzero"/>
    <clipPath id="a">
        <path d="M439.917 513.709c-81.834.583-124.084-53.959-127.334-131.167v-92.208c0-73 59.167-132.167 132.167-132.167h4.833c73.001 0 132.167 59.167 132.167 132.167v87.416c0 75.625-75.375 135.5-141.833 135.959Z"/>
    </clipPath>
    <g clip-path="url(#a)">
        <path d="M328.049 485.05c-28.084 10.125-59.084-4.125-69.292-31.875-10.208-27.708 4.208-58.416 32.292-68.541 28-10.084 59.083 4.208 69.333 31.916 10.208 27.75-4.292 58.417-32.333 68.5Z" opacity=".6" style="fill:url(#b);fill-rule:nonzero"/>
    </g>
    <clipPath id="c">
        <path d="M439.917 513.709c-81.834.583-124.084-53.959-127.334-131.167v-92.208c0-73 59.167-132.167 132.167-132.167h4.833c73.001 0 132.167 59.167 132.167 132.167v87.416c0 75.625-75.375 135.5-141.833 135.959Z"/>
    </clipPath>
    <g clip-path="url(#c)">
        <path d="M521.009 486.125c-28.084 10.125-59.084-4.125-69.292-31.875-10.209-27.708 4.208-58.416 32.292-68.541 28-10.084 59.083 4.208 69.333 31.916 10.208 27.75-4.292 58.417-32.333 68.5Z" opacity=".6" style="fill:url(#d);fill-rule:nonzero"/>
    </g>
    <path d="M426.125 295.917c-24.625 7.458-67.208 16.375-86.167 25.208-17.25 8.084-27.541 27.167-27.541 46.209V464.5l-23.792-47.125-8-157.375 70.583-84.417 76.334-21.791h108.042l82.125 91.833 1.375 231.917-24.959 7.25 8.792-118.875c0-18.125-6.5 13.917-21.792 4.208-14.333-9.125-70.458-55.875-84.916-99.25-3.125-9.333-6.084-6.958-12.5-2.208-10.084 7.583-30.917 19.167-57.584 27.25Z" style="fill:#6d4c41;fill-rule:nonzero"/>
    <path d="M424.708 392.625c-5.875 2.334-9.916 2.667-14.625 2.667-4.708 0-8.75-.375-14.625-2.667-2.5-1-5.208 1.459-4.666 3.75 1.791 7.542 9.375 13.75 19.291 13.75 9.917 0 17.75-6.5 19.292-13.75.5-2.291-2.125-4.708-4.667-3.75Z" style="fill:#e48c15;fill-rule:nonzero"/>
    <path d="M344.5 352.375c-1.542.209-2.667 4.042-1.333 10.75 1.625 8.125 7.25 14.292 12.375 16.792 6.416 3.167 19.166 5.375 29.291-1.708 11.625-8.125 8.209-14.875 4-13.334-4.291 1.584-12.041 3.25-18.458 2.834-6.625-.417-13.833-3.625-18.458-7.875-3.375-3.125-5.75-7.667-7.417-7.459Zm95.625.584c-1.542.25-2.542 4.083-1.042 10.791 1.792 8.084 7.625 14.084 12.792 16.5 6.5 3 19.292 4.875 29.25-2.458 11.417-8.417 7.834-15.083 3.667-13.417-4.25 1.667-11.959 3.542-18.375 3.292-6.667-.25-13.917-3.292-18.667-7.417-3.458-3.041-6-7.541-7.625-7.291ZM407.25 431c-1.083 1.25-3.542 1.584-6.042 1.875-4.125.459-10 .584-12.708 4.25-2.167 3-1.792 7.417-.042 10.084 2.667 4.041 7.334 3.583 11.709 5.208 1.125.417 1.75 1.667 1.625 2.792a2.119 2.119 0 0 1-.542 1.208c-1.458 1.375-3.667 1.375-5.542 1.542-1.916.166-4.583.5-6.166 2-2.875 2.708-2.75 6.666-.542 9.458 2.958 3.75 9.875 4.75 13.125 7.292 1.708 1.333 3.917 3.291 3.208 6.458-.833 3.625-6.541 4.917-10.791.333-3.959-4.208-11.084-6.333-13.959-11.375-3-5.25-1.958-10.625 1.417-15.708 1.583-2.458-1.167-6-2.125-9.292-.875-3.041-.958-5.875-.083-8.958 2.458-9.583 12.375-9.708 20.166-12.875 1.792-.708 4.375-.917 6.334.042 1.583.833 2.625 3.666.958 5.666Z" style="fill:#444;fill-rule:nonzero"/>
    <path d="M143.458 145.375c24.5 36.458 68.125 74.25 99.584 103.625 3.375 3.125 6.666 6.5 10.083 9.667 3.625 3.375 8.042 11.042 13.875 11.375 5.875-.333 10.25-8.042 13.875-11.375 3.417-3.167 6.75-6.542 10.125-9.667 31.458-29.333 75.083-67.167 99.542-103.625 7.333-10.875 12.708-22.583 14.916-35.542 2.167-13 2.084-31.625-3.25-44-12.541-29.25-33.916-45.958-63.208-45.791-1.083.041-2.167.041-3.25.083-11.5.208-22.625 2.75-33.167 7.167-11.291 4.75-19.041 11.875-29.083 18.25-3.792 2.416-9.208 2.375-12.958 0-10.042-6.375-17.75-13.5-29.084-18.25-10.541-4.375-21.708-6.959-33.166-7.167-1.084-.042-2.209-.042-3.25-.083-29.375-.167-50.709 16.541-63.209 45.791-5.291 12.375-5.416 31-3.25 44 2.167 12.917 7.625 24.625 14.875 35.542Z" style="fill:#f06292;fill-rule:nonzero"/>
    <defs>
        <radialGradient id="b" cx="0" cy="0" r="1" gradientTransform="matrix(54.0867 0 0 53.4546 309.565 434.855)" gradientUnits="userSpaceOnUse">
            <stop offset="0" style="stop-color:#db4437;stop-opacity:.6"/>
            <stop offset="1" style="stop-color:#db4437;stop-opacity:0"/>
        </radialGradient>
        <radialGradient id="d" cx="0" cy="0" r="1" gradientTransform="matrix(54.0867 0 0 53.4546 502.525 435.93)" gradientUnits="userSpaceOnUse">
            <stop offset="0" style="stop-color:#db4437;stop-opacity:.6"/>
            <stop offset="1" style="stop-color:#db4437;stop-opacity:0"/>
        </radialGradient>
    </defs>
</svg>